/* XPM */
static char *tiledoor2[] = {
/* columns rows colors chars-per-pixel */
"16 16 9 1 ",
"  c #3B00AA",
". c #4501B6",
"X c #5204C0",
"o c #5E09C7",
"O c #7A1DD5",
"+ c #8123D7",
"@ c #8426D9",
"# c #9336DF",
"$ c #983CE0",
/* pixels */
" . .+$#+OOO$$o. ",
"X .++o.X    X$o.",
" .+$o .oooX. oOo",
".+$X .oOO++o. oO",
"o$o .oOoXXo$+. o",
"o$X oOoX.o.+$+. ",
"o#X oOo oOo.+$X ",
"o+X.o+o .oO.o$oX",
"o+X o+o. o+.o$oX",
"o+X oo+oo$o o$oX",
"oOX Xoo+$o. +$X ",
"XOoX Xooo. +$+X.",
".oOoX .X. o$+ .o",
" Xo$oooooo$o .oO",
". Xo$$+@$$. .ooo",
"   .XXXXX..XoOo "
};
