/* XPM */
static char *tiledoor4[] = {
/* columns rows colors chars-per-pixel */
"16 16 9 1 ",
"  c #3B00AA",
". c #4501B6",
"X c #5204C0",
"o c #5E09C7",
"O c #7A1DD5",
"+ c #8123D7",
"@ c #8426D9",
"# c #9336DF",
"$ c #983CE0",
/* pixels */
" oOoX..XXXXX.   ",
"ooo. .$$@+$$oX .",
"Oo. o$oooooo$oX ",
"o. +$o .X. XoOo.",
".X+$+ .oooX XoOX",
" X$+ .o$+ooX XOo",
"Xo$o o$oo+oo X+o",
"Xo$o.+o .o+o X+o",
"Xo$o.Oo. o+o.X+o",
" X$+.oOo oOo X#o",
" .+$+.o.XoOo X$o",
"o .+$oXXoOo. o$o",
"Oo .o++OOo. X$+.",
"oOo .Xooo. o$+. ",
".o$X    X.o++. X",
" .o$$OOO+#$+. . "
};
