/* XPM */
static char *tile1[] = {
/* columns rows colors chars-per-pixel */
"16 16 8 1 ",
"  c #733E39",
". c #B86F50",
"X c #D77643",
"o c #C77D56",
"O c #C9845D",
"+ c #D08559",
"@ c #DF935F",
"# c #E4A672",
/* pixels */
"@@###@##@######.",
"# ###@#####@## .",
"###########@##O.",
"...          ...",
"##@ .. .. @X ##.",
"### ++ . ##@ ##.",
"### ++  ###  ##.",
"@## .. ##@ . ##.",
"o## . ### .. ##.",
"@##  @##  .+ ##.",
"@#O X## . ++ ##.",
"@## X@ .+ .. @@.",
"...          ...",
"###@@##########.",
"@ #@###X###@#@ .",
"O..............."
};
