/* XPM */
static char *tile3[] = {
/* columns rows colors chars-per-pixel */
"16 16 9 1 ",
"  c #74777A",
". c #7C7D80",
"X c #579BD0",
"o c #5FABED",
"O c #43E8F5",
"+ c #8B8B8B",
"@ c gray58",
"# c #9F9F9F",
"$ c #ABF1FF",
/* pixels */
"@+@@##@+@###@+++",
"+...  $#+@@+  .+",
"@+##@+  ##O$ @##",
"#@+O$#@##@+@#+++",
"+++@#@OO. +###@+",
"@+ oo$$OO+##@+..",
"+   +++  ++ O$O+",
"##@...+O##X$OX##",
"+oOO$##+@@@+  ++",
"@#@oO$###O$##..+",
"+++@++@@XoO$@@@#",
"@@##+@@##@...+++",
"##oXO$O@Xo ##@@@",
"...oXO##++#O@+++",
"++@@     +++   +",
"#@#@@+ @##... ##"
};
